<?xml version="1.0" encoding="UTF-8"?>
<svg version="1.1" xmlns="http://www.w3.org/2000/svg" width="400" height="400">
<path d="M0 0 C132 0 264 0 400 0 C400 132 400 264 400 400 C268 400 136 400 0 400 C0 268 0 136 0 0 Z " fill="#1E40EC" transform="translate(0,0)"/>
<path d="M0 0 C28.0152462 -0.02332539 56.03049095 -0.0409774 84.0457449 -0.05181217 C97.05271669 -0.0569759 110.05968246 -0.06402004 123.06665039 -0.07543945 C134.39904235 -0.08538396 145.73142995 -0.09185287 157.06382614 -0.09408849 C163.06827176 -0.095396 169.0727049 -0.09848435 175.07714653 -0.10573006 C180.72162969 -0.1124866 186.36609516 -0.11461771 192.01058197 -0.11310768 C194.08874927 -0.11338418 196.16691713 -0.11539145 198.24508095 -0.11920547 C201.06924749 -0.12413702 203.89334612 -0.12300029 206.71751404 -0.12025452 C207.55115508 -0.12316736 208.38479612 -0.1260802 209.24369901 -0.12908131 C214.88587879 -0.11412121 214.88587879 -0.11412121 216 1 C216.12682623 3.47163686 216.18520251 5.90290611 216.1875 8.375 C216.19974609 9.06078125 216.21199219 9.7465625 216.22460938 10.453125 C216.23552331 14.19296797 216.1266842 15.8099737 214 19 C213.34 19 212.68 19 212 19 C211.77054688 19.52851562 211.54109375 20.05703125 211.3046875 20.6015625 C209.57137435 23.78795254 207.37559521 26.54582639 205.125 29.375 C204.64466309 29.98351807 204.16432617 30.59203613 203.66943359 31.21899414 C199.62791237 36.29926065 195.43469236 41.24116125 191.14892578 46.11669922 C188.67444941 48.95134654 186.40427885 51.80586178 184.2734375 54.91015625 C183.52320313 55.92980469 182.77296875 56.94945312 182 58 C181.34 58 180.68 58 180 58 C179.62875 58.804375 179.62875 58.804375 179.25 59.625 C176.48741327 64.87391479 173.16992974 68.83007026 169 73 C167.55915819 74.68799351 166.1426746 76.39705189 164.75 78.125 C163.97140625 79.08664063 163.1928125 80.04828125 162.390625 81.0390625 C161.60171875 82.01617187 160.8128125 82.99328125 160 84 C158.50140745 85.83448398 157.00142893 87.66783672 155.5 89.5 C154.38625 90.86125 154.38625 90.86125 153.25 92.25 C137.5 111.5 137.5 111.5 135.27734375 114.21484375 C133.68395541 116.1635331 132.09300977 118.11422117 130.50390625 120.06640625 C129.69824219 121.05511719 128.89257812 122.04382813 128.0625 123.0625 C127.33160156 123.96097656 126.60070312 124.85945313 125.84765625 125.78515625 C124 128 124 128 122 130 C122.23096255 134.44789165 124.0439741 136.55506746 127.0625 139.6875 C130.81318518 143.69725919 134.3044089 147.79564919 137.70703125 152.1015625 C144.97191899 161.28477665 152.30699961 170.34911079 160.22265625 178.98046875 C162.43131582 181.49008852 164.17299732 184.20240214 166 187 C171.32464743 193.80499123 176.98455955 200.33198711 182.62475586 206.87475586 C186.15968679 210.98672637 189.57422167 215.17651891 192.93359375 219.43359375 C195.44061864 222.54723336 198.03003804 225.58464061 200.625 228.625 C212 241.99520384 212 241.99520384 212 245 C212.66 245 213.32 245 214 245 C216.43929003 248.65893505 216.26289673 251.40278333 216.1875 255.625 C216.1865332 256.66527344 216.1865332 256.66527344 216.18554688 257.7265625 C216.14043257 262.85956743 216.14043257 262.85956743 215 264 C212.23099828 264.09788593 209.48694335 264.12993123 206.71751404 264.12025452 C205.83869586 264.12110894 204.95987767 264.12196337 204.05442864 264.12284368 C201.08631436 264.12450119 198.11825562 264.11897271 195.15014648 264.11352539 C193.03179933 264.11324355 190.91345208 264.11340119 188.79510498 264.1139679 C183.02467859 264.114256 177.25427278 264.10835725 171.48385119 264.10139394 C165.46067581 264.09516248 159.43750001 264.09455677 153.4143219 264.09336853 C141.99978436 264.0902546 130.58525635 264.08204038 119.17072302 264.07201904 C106.1794126 264.06085982 93.18810173 264.05534794 80.19678771 264.05032361 C53.46451985 264.03985782 26.73226046 264.02225718 0 264 C-1.16912078 261.66175845 -1.12530439 260.30406372 -1.12584114 257.69897461 C-1.12844889 256.79054306 -1.13105664 255.88211151 -1.13374341 254.94615173 C-1.13151268 253.9416951 -1.12928196 252.93723846 -1.12698364 251.90234375 C-1.12854363 250.84032242 -1.13010362 249.77830109 -1.13171089 248.68409729 C-1.13572059 245.10188435 -1.13253134 241.5197133 -1.12939453 237.9375 C-1.13074858 235.378906 -1.13252854 232.82031219 -1.13470459 230.26171875 C-1.13880276 224.01952037 -1.13818678 217.77733768 -1.13529195 211.53513908 C-1.13303707 206.46369198 -1.13272576 201.39224824 -1.13381577 196.32080078 C-1.133969 195.60005528 -1.13412223 194.87930979 -1.13428011 194.13672352 C-1.13459982 192.67271805 -1.13492403 191.20871258 -1.1352527 189.74470711 C-1.13810685 176.00439385 -1.13482148 162.26408726 -1.12945233 148.5237751 C-1.12498435 136.72418006 -1.1257603 124.92459486 -1.13037109 113.125 C-1.13571799 99.43513324 -1.13783217 85.74527232 -1.13475883 72.05540466 C-1.13444027 70.59666952 -1.1341259 69.13793437 -1.13381577 67.67919922 C-1.13366149 66.96140195 -1.13350721 66.24360468 -1.13334826 65.50405598 C-1.13248346 60.43645907 -1.13394521 55.36886586 -1.13629532 50.30126953 C-1.13938655 43.48550686 -1.13719778 36.66976571 -1.13140106 29.85400391 C-1.13007363 27.34570344 -1.1304673 24.83740142 -1.13266373 22.32910156 C-1.13537585 18.91859826 -1.13199329 15.50815564 -1.12698364 12.09765625 C-1.12921436 11.09319962 -1.13144509 10.08874298 -1.13374341 9.05384827 C-1.13113566 8.14541672 -1.12852791 7.23698517 -1.12584114 6.30102539 C-1.12567879 5.51305069 -1.12551644 4.72507599 -1.12534916 3.91322327 C-1 2 -1 2 0 0 Z " fill="#F7F9FC" transform="translate(93,68)"/>
<path d="M0 0 C3.05535835 1.32053624 4.6386599 2.50571652 6.5 5.25 C9.35903685 9.2396887 12.46863935 12.92677797 15.6875 16.625 C19.75943066 21.32008237 23.69559884 26.08572268 27.5 31 C31.72960168 36.45816747 36.13443973 41.73008324 40.65136719 46.95214844 C47.28856541 54.62843836 53.64002847 62.53053274 59.96484375 70.46484375 C62.14473592 73.18029484 64.3513497 75.8724542 66.5625 78.5625 C68.04267702 80.37417499 69.52187159 82.18665318 71 84 C71.70125 84.85464844 72.4025 85.70929688 73.125 86.58984375 C74.0840625 87.78287109 74.0840625 87.78287109 75.0625 89 C75.91521484 90.051875 75.91521484 90.051875 76.78515625 91.125 C78 93 78 93 78 96 C27.51 96 -22.98 96 -75 96 C-73.95333735 90.76668674 -72.28548464 88.53836678 -68.875 84.75 C-67.85804794 83.58579329 -66.84242084 82.42042787 -65.828125 81.25390625 C-65.33634766 80.69203613 -64.84457031 80.13016602 -64.33789062 79.55126953 C-62.69631943 77.6478857 -61.14953557 75.68556555 -59.625 73.6875 C-56.35152363 69.41226098 -52.96341202 65.23643403 -49.5625 61.0625 C-46.02540191 56.72106322 -42.49015516 52.37936666 -39 48 C-35.59288182 43.72496329 -32.14143193 39.48718972 -28.6875 35.25 C-24.527513 30.14619573 -20.42023008 25.00765806 -16.375 19.8125 C-11.10381297 13.0474543 -5.586869 6.50540646 0 0 Z " fill="#1F40EC" transform="translate(200,216)"/>
<path d="M0 0 C50.49 0 100.98 0 153 0 C151.99107314 4.03570746 151.13714023 5.39178241 148.5625 8.5 C147.84320313 9.37527344 147.12390625 10.25054687 146.3828125 11.15234375 C145.59648437 12.09207031 144.81015625 13.03179687 144 14 C142.75863281 15.48693359 142.75863281 15.48693359 141.4921875 17.00390625 C140.20858382 18.54069781 138.92495012 20.0774674 137.63842773 21.61181641 C135.23472206 24.48632256 132.89689879 27.39555122 130.625 30.375 C127.66962002 34.22113703 124.54610573 37.89481304 121.375 41.5625 C115.31811867 48.57282342 109.47083938 55.74003412 103.65429688 62.95019531 C100.87960544 66.38825749 98.09675756 69.81968297 95.3125 73.25 C94.50969604 74.24 94.50969604 74.24 93.69067383 75.25 C89.4577445 80.4605576 85.16005477 85.61374161 80.828125 90.7421875 C78.98201816 92.85656807 78.98201816 92.85656807 78 95 C74.75470672 94.70034748 73.3000877 94.29159465 70.9296875 91.98828125 C70.25164062 91.10527344 69.57359375 90.22226563 68.875 89.3125 C68.09253906 88.31089844 67.31007813 87.30929688 66.50390625 86.27734375 C65.88926514 85.47272705 65.88926514 85.47272705 65.26220703 84.65185547 C63.13844266 81.8724764 60.97252185 79.1262271 58.8125 76.375 C58.36140869 75.79758057 57.91031738 75.22016113 57.44555664 74.62524414 C53.05226701 69.01854808 48.52303297 63.52760977 43.98388672 58.03881836 C40.31695721 53.60386354 36.68937311 49.14231467 33.109375 44.63671875 C30.88102202 41.85127752 28.62987613 39.08537364 26.37573242 36.32080078 C20.66466619 29.31555657 15.01211263 22.27030175 9.45703125 15.140625 C7.90731108 13.15974262 6.34395183 11.18938551 4.76171875 9.234375 C4.11847656 8.43515625 3.47523438 7.6359375 2.8125 6.8125 C2.26207031 6.13832031 1.71164063 5.46414062 1.14453125 4.76953125 C0 3 0 3 0 0 Z " fill="#1E40EC" transform="translate(125,88)"/>
<path d="M0 0 C3.58863009 1.79431505 4.70619291 2.50412793 7.06640625 5.421875 C7.62851807 6.11031494 8.19062988 6.79875488 8.76977539 7.50805664 C9.36137451 8.24789795 9.95297363 8.98773926 10.5625 9.75 C11.49340454 10.89746704 11.49340454 10.89746704 12.44311523 12.06811523 C16.64106363 17.25825696 20.78064429 22.49441186 24.88500977 27.75878906 C28.90483383 32.90921157 33.02762801 37.97235341 37.15991211 43.03271484 C40.70122595 47.37774976 44.18181605 51.76444251 47.625 56.1875 C51.77527548 61.51704715 56.06733748 66.70662144 60.47314453 71.8269043 C66 78.26598917 66 78.26598917 66 82 C44.22 82 22.44 82 0 82 C0 54.94 0 27.88 0 0 Z " fill="#1F40EB" transform="translate(112,108)"/>
<path d="M0 0 C21.78 0 43.56 0 66 0 C64.89254453 4.42982189 62.92748494 6.98304146 60.125 10.4375 C59.63612305 11.05004639 59.14724609 11.66259277 58.64355469 12.29370117 C54.7948512 17.08857504 50.83444773 21.78625868 46.84179688 26.46142578 C43.78261126 30.04907587 40.85461819 33.70724666 37.98828125 37.44921875 C35.31259421 40.88187815 32.56247894 44.25173517 29.8125 47.625 C25.43155576 52.99983386 21.07496514 58.39251869 16.75 63.8125 C15.76837002 65.03917523 14.78660228 66.26574023 13.8046875 67.4921875 C11.9700167 69.78394765 10.14314852 72.08163404 8.3203125 74.3828125 C7.51335937 75.39085937 6.70640625 76.39890625 5.875 77.4375 C4.81925781 78.76587891 4.81925781 78.76587891 3.7421875 80.12109375 C2.87980469 81.05115234 2.87980469 81.05115234 2 82 C1.34 82 0.68 82 0 82 C0 54.94 0 27.88 0 0 Z " fill="#1F40EA" transform="translate(112,210)"/>
<path d="M0 0 C1.26008805 0.00334608 1.26008805 0.00334608 2.54563242 0.00675976 C3.87399366 0.00441978 3.87399366 0.00441978 5.22919047 0.00203252 C8.22027217 -0.00198148 11.21130382 0.00121371 14.20238596 0.00434887 C16.33719258 0.002995 18.47199897 0.00121515 20.60680491 -0.00096118 C26.42281599 -0.00553745 32.23880943 -0.00374509 38.05482084 -0.0005821 C44.12777782 0.00194084 50.20073324 -0.00039588 56.27369028 -0.00196826 C66.47534813 -0.00379029 76.67699874 -0.00138292 86.87865549 0.00337231 C98.68870454 0.00881354 110.49873633 0.00705342 122.30878496 0.00154591 C132.43019783 -0.00298601 142.55160549 -0.00363534 152.67301905 -0.00101542 C158.72610454 0.0005471 164.7791819 0.0007418 170.83226687 -0.00255191 C176.52273342 -0.00543171 182.21317763 -0.0034529 187.90364176 0.00234234 C189.99751409 0.00366942 192.09138828 0.00327671 194.18525988 0.00107968 C197.03311164 -0.00163391 199.88089082 0.00175194 202.72873789 0.00675976 C203.98547986 0.00341368 203.98547986 0.00341368 205.26761055 0 C210.97237713 0.01959348 210.97237713 0.01959348 213.20067698 1.13374341 C213.4024477 8.4871652 213.41279443 15.08261901 211.20067698 22.13374341 C209.88067698 22.13374341 208.56067698 22.13374341 207.20067698 22.13374341 C207.20067698 21.47374341 207.20067698 20.81374341 207.20067698 20.13374341 C207.86067698 20.13374341 208.52067698 20.13374341 209.20067698 20.13374341 C211.10096935 14.43286628 210.20067698 8.14299553 210.20067698 2.13374341 C103.77567698 1.63874341 103.77567698 1.63874341 -4.79932302 1.13374341 C-4.79932302 88.25374341 -4.79932302 175.37374341 -4.79932302 265.13374341 C101.62567698 264.63874341 101.62567698 264.63874341 210.20067698 264.13374341 C210.20067698 258.85374341 210.20067698 253.57374341 210.20067698 248.13374341 C210.86067698 248.13374341 211.52067698 248.13374341 212.20067698 248.13374341 C213.38749423 251.69419517 213.2975753 254.57182678 213.26317698 258.32124341 C213.25415354 259.59354809 213.2451301 260.86585278 213.23583323 262.17671216 C213.21843088 263.64044262 213.21843088 263.64044262 213.20067698 265.13374341 C209.93003723 266.76906328 206.31589085 266.26648246 202.72200876 266.25399792 C201.3902492 266.25527956 201.3902492 266.25527956 200.0315854 266.25658709 C197.03893823 266.25824198 194.04634638 266.25272034 191.05370432 266.2472688 C188.91550548 266.2469869 186.77730655 266.2471447 184.63910776 266.2477113 C178.81915545 266.24799918 172.99922359 266.24210394 167.17927605 266.23513734 C161.10272136 266.22890227 155.02616625 266.22829988 148.94960886 266.22711194 C137.43593996 266.22399908 125.9222805 266.21578629 114.40861577 266.20576245 C101.30362046 266.19459991 88.19862472 266.1890905 75.09362584 266.18406701 C48.12930431 266.17360365 21.16499117 266.15600507 -5.79932302 266.13374341 C-6.97438575 263.78361796 -6.92463094 262.40277072 -6.92516416 259.78307259 C-6.92777191 258.86357416 -6.93037966 257.94407572 -6.93306643 256.9967137 C-6.93083571 255.9799021 -6.92860498 254.9630905 -6.92630666 253.91546643 C-6.92786666 252.84048887 -6.92942665 251.76551132 -6.93103391 250.65795869 C-6.93504371 247.03195333 -6.93185433 243.40598936 -6.92871755 239.77998364 C-6.93007159 237.19021085 -6.93185154 234.60043825 -6.93402761 232.01066601 C-6.93848307 225.69260359 -6.93750988 219.37455301 -6.93461497 213.05649012 C-6.93236026 207.9240123 -6.93204871 202.79153781 -6.93313879 197.65905964 C-6.93336864 196.56501919 -6.93336864 196.56501919 -6.93360313 195.44887691 C-6.93392284 193.9673947 -6.93424705 192.4859125 -6.93457572 191.0044303 C-6.93742981 177.10057308 -6.9341445 163.19672244 -6.92877536 149.2928663 C-6.92430644 137.35025498 -6.92508411 125.40765338 -6.92969412 113.46504223 C-6.93503952 99.61074601 -6.93715611 85.75645555 -6.93408185 71.90215844 C-6.93376329 70.42630943 -6.93344892 68.95046041 -6.93313879 67.4746114 C-6.93298451 66.74838109 -6.93283024 66.02215078 -6.93267129 65.27391348 C-6.9318061 60.14423113 -6.93326902 55.01455243 -6.93561834 49.88487065 C-6.93870752 42.9878549 -6.93652421 36.09085788 -6.93072408 29.19384396 C-6.92939571 26.65448486 -6.9297919 24.11512423 -6.93198675 21.57576573 C-6.93469519 18.12550138 -6.93132091 14.6752972 -6.92630666 11.22503674 C-6.92853739 10.20599442 -6.93076811 9.1869521 -6.93306643 8.13702971 C-6.93045868 7.22013902 -6.92785093 6.30324833 -6.92516416 5.35857308 C-6.92500181 4.56110537 -6.92483946 3.76363766 -6.92467219 2.94200426 C-6.64055242 -1.15664807 -3.3545726 0.01156126 0 0 Z " fill="#2945C2" transform="translate(97.79932302236557,66.8662565946579)"/>
<path d="M0 0 C50.49 0 100.98 0 153 0 C152.04065919 3.83736322 151.76390737 4.59660228 149 7 C148.67 6.01 148.34 5.02 148 4 C148.66 4 149.32 4 150 4 C150 3.34 150 2.68 150 2 C131.78076797 2.10713484 113.56157975 2.21987731 95.34242439 2.33933926 C86.88340779 2.39467306 78.42438696 2.44815531 69.96533203 2.49731445 C62.59445857 2.54015438 55.22361619 2.58643187 47.85279071 2.63687855 C43.94816683 2.66348104 40.04354911 2.68833415 36.13888931 2.70907402 C32.46669471 2.72863337 28.79455927 2.75277501 25.12241745 2.78049088 C23.12610617 2.79434807 21.12976271 2.80329316 19.13342285 2.81211853 C17.95269196 2.82190735 16.77196106 2.83169617 15.55545044 2.84178162 C14.52488588 2.84823417 13.49432133 2.85468672 12.43252754 2.8613348 C9.99113453 2.83960567 9.99113453 2.83960567 8 4 C8.309375 4.680625 8.61875 5.36125 8.9375 6.0625 C10.13370649 9.36965912 10.59005397 12.51545878 11 16 C6.84949556 12.09364288 2.97544196 7.88749573 0 3 C0 2.01 0 1.02 0 0 Z " fill="#1A45DD" transform="translate(125,88)"/>
<path d="M0 0 C0.495 0.99 0.495 0.99 1 2 C1.66 2.33 2.32 2.66 3 3 C2.13375 3.2784375 2.13375 3.2784375 1.25 3.5625 C-2.10427843 5.70551122 -3.17907996 8.48822563 -5 12 C-3.68 12 -2.36 12 -1 12 C-1 12.66 -1 13.32 -1 14 C-1.66 14 -2.32 14 -3 14 C-3 14.66 -3 15.32 -3 16 C-5.375 18.625 -5.375 18.625 -8 21 C-9 21 -10 21 -11 21 C-11.33 21.99 -11.66 22.98 -12 24 C-13.98 24.33 -15.96 24.66 -18 25 C-18.33 26.32 -18.66 27.64 -19 29 C-20.32 29.33 -21.64 29.66 -23 30 C-23 31.32 -23 32.64 -23 34 C-24.485 34.495 -24.485 34.495 -26 35 C-26.33 35.99 -26.66 36.98 -27 38 C-28.66666667 39.66666667 -30.33333333 41.33333333 -32 43 C-35.61446502 47.49365922 -36.4606644 50.24169504 -36 56 C-36.66 56 -37.32 56 -38 56 C-37.484375 56.94875 -36.96875 57.8975 -36.4375 58.875 C-35.963125 59.90625 -35.48875 60.9375 -35 62 C-35.33 62.66 -35.66 63.32 -36 64 C-37.20550294 62.78848458 -38.38892747 61.55497111 -39.5625 60.3125 C-40.22378906 59.62800781 -40.88507813 58.94351563 -41.56640625 58.23828125 C-43 56 -43 56 -42.9765625 53.53125 C-41.76551033 50.39220277 -40.14576231 48.60674518 -37.8125 46.1875 C-35.08443184 43.27527653 -32.46224927 40.42263682 -30.125 37.1875 C-27.51897531 33.60511344 -24.69266257 30.23751989 -21.8125 26.875 C-17.33141424 21.63730725 -13.01828458 16.29053879 -8.79223633 10.84521484 C-5.93410215 7.16511582 -3.00058457 3.5652107 0 0 Z " fill="#2E4CDA" transform="translate(257,146)"/>
<path d="M0 0 C3.59452983 3.49182898 6.96185351 7.00700747 10 11 C10 11.99 10 12.98 10 14 C-40.49 14 -90.98 14 -143 14 C-141.9957244 8.97862202 -141.60239038 8.13756581 -138 5 C-138.33 6.65 -138.66 8.3 -139 10 C-139.66 10 -140.32 10 -141 10 C-141 10.99 -141 11.98 -141 13 C-124.60443454 12.89226047 -108.20891313 12.77941486 -91.81342411 12.66066074 C-84.1989539 12.60562459 -76.58447903 12.55219491 -68.9699707 12.50268555 C-62.32519542 12.45947714 -55.6804505 12.41311355 -49.03572267 12.36312145 C-45.52465513 12.33681161 -42.01359245 12.31197267 -38.50248909 12.29092598 C-24.30712452 12.20487304 -10.15907626 12.09857477 4 11 C3.67 9.35 3.34 7.7 3 6 C2.34 6 1.68 6 1 6 C0.67 4.02 0.34 2.04 0 0 Z " fill="#2A48BE" transform="translate(268,298)"/>
<path d="M0 0 C3.99375386 1.99687693 5.17988493 3.16522971 7.75 6.625 C8.67039062 7.85089844 8.67039062 7.85089844 9.609375 9.1015625 C10.29773438 10.04128906 10.29773438 10.04128906 11 11 C10.01 11.495 10.01 11.495 9 12 C8.01 11.67 7.02 11.34 6 11 C4.96514123 8.68191636 3.9644586 6.34824702 3 4 C2.34 3.67 1.68 3.34 1 3 C1 28.74 1 54.48 1 81 C21.13 80.67 41.26 80.34 62 80 C62.33 79.34 62.66 78.68 63 78 C61.35 78 59.7 78 58 78 C58.495 76.515 58.495 76.515 59 75 C58.34 75 57.68 75 57 75 C56.505 71.535 56.505 71.535 56 68 C59.59452983 71.49182898 62.96185351 75.00700747 66 79 C66 79.99 66 80.98 66 82 C44.22 82 22.44 82 0 82 C0 54.94 0 27.88 0 0 Z " fill="#3D56CA" transform="translate(112,108)"/>
<path d="M0 0 C21.78 0 43.56 0 66 0 C65.67 1.32 65.34 2.64 65 4 C64.505 2.515 64.505 2.515 64 1 C43.21 1 22.42 1 1 1 C1.33 26.41 1.66 51.82 2 78 C2.66 78 3.32 78 4 78 C4 77.01 4 76.02 4 75 C4.66 75 5.32 75 6 75 C6 74.34 6 73.68 6 73 C5.34 72.67 4.68 72.34 4 72 C6.475 71.01 6.475 71.01 9 70 C9 68.02 9 66.04 9 64 C11.31 64 13.62 64 16 64 C11.95172009 70.48644849 7.558496 76.70440584 2 82 C1.34 82 0.68 82 0 82 C0 54.94 0 27.88 0 0 Z " fill="#354EC8" transform="translate(112,210)"/>
<path d="M0 0 C50.49 0 100.98 0 153 0 C152.04065919 3.83736322 151.76390737 4.59660228 149 7 C148.67 6.01 148.34 5.02 148 4 C148.66 4 149.32 4 150 4 C150 3.34 150 2.68 150 2 C76.74 1.505 76.74 1.505 2 1 C2.33 2.65 2.66 4.3 3 6 C1.5 4.6875 1.5 4.6875 0 3 C0 2.01 0 1.02 0 0 Z " fill="#2946BE" transform="translate(125,88)"/>
<path d="M0 0 C3 1 3 1 4.1875 2.875 C5 5 5 5 5 8 C5.88945313 8.05027344 6.77890625 8.10054687 7.6953125 8.15234375 C12.00598381 9.25803604 13.21550795 11.05680593 15.875 14.5625 C16.65617187 15.57441406 17.43734375 16.58632812 18.2421875 17.62890625 C18.82226562 18.41136719 19.40234375 19.19382813 20 20 C18.68 20.33 17.36 20.66 16 21 C15.34 19.02 14.68 17.04 14 15 C13.34 15 12.68 15 12 15 C12 14.34 12 13.68 12 13 C11.34 13 10.68 13 10 13 C9.67 13.66 9.34 14.32 9 15 C6.9375 15.625 6.9375 15.625 5 16 C4.67 15.01 4.34 14.02 4 13 C1.6825533 18.55374068 1.65603348 23.73049127 1.5859375 29.6484375 C1.56657135 30.66096588 1.5472052 31.67349426 1.5272522 32.71670532 C1.46769277 35.93605242 1.42116552 39.15543574 1.375 42.375 C1.33679849 44.56381728 1.2977455 46.75261988 1.2578125 48.94140625 C1.16201077 54.29414005 1.07689467 59.646963 1 65 C0.67 65 0.34 65 0 65 C0 43.55 0 22.1 0 0 Z " fill="#2041E0" transform="translate(113,111)"/>
<path d="M0 0 C1.28179927 2.56359854 0.87670752 3.71958533 0.3125 6.5 C0.16425781 7.2940625 0.01601562 8.088125 -0.13671875 8.90625 C-1.24735655 11.59992357 -2.45111889 11.77369935 -5 13 C-5.81870185 16.56206661 -5.81870185 16.56206661 -6 20 C-6.99 20 -7.98 20 -9 20 C-11.00309329 20.31421071 -13.00371336 20.6451046 -15 21 C-15.66 22.98 -16.32 24.96 -17 27 C-18.32 26.67 -19.64 26.34 -21 26 C-20.64808594 25.56768066 -20.29617187 25.13536133 -19.93359375 24.68994141 C-13.25676174 16.48554437 -6.58617803 8.27749263 0 0 Z " fill="#1F41E4" transform="translate(198,218)"/>
<path d="M0 0 C2.475 0.495 2.475 0.495 5 1 C1.72470514 6.16206073 -2.02508709 10.80840264 -5.9375 15.5 C-6.54529297 16.23347656 -7.15308594 16.96695312 -7.77929688 17.72265625 C-9.51642883 19.8177086 -11.25740001 21.90949486 -13 24 C-13.51320801 24.61617188 -14.02641602 25.23234375 -14.55517578 25.8671875 C-15.7030518 27.24512391 -16.85145667 28.62261976 -18 30 C-18.66 29.34 -19.32 28.68 -20 28 C-20 27.01 -20 26.02 -20 25 C-19.21625 24.731875 -18.4325 24.46375 -17.625 24.1875 C-14.71885077 23.15185568 -14.71885077 23.15185568 -13 20 C-12.34 20 -11.68 20 -11 20 C-10.566875 18.1128125 -10.566875 18.1128125 -10.125 16.1875 C-9.42696461 13.1460601 -8.79553415 11.69330122 -7 9 C-7.66 8.34 -8.32 7.68 -9 7 C-7.88625 6.54625 -6.7725 6.0925 -5.625 5.625 C-2.03800992 4.27534014 -2.03800992 4.27534014 0 2 C0 1.34 0 0.68 0 0 Z " fill="#2344DB" transform="translate(148,242)"/>
<path d="M0 0 C0.33 0.66 0.66 1.32 1 2 C1.66 2.33 2.32 2.66 3 3 C2.13375 3.2784375 2.13375 3.2784375 1.25 3.5625 C-2.10427843 5.70551122 -3.17907996 8.48822563 -5 12 C-3.68 12 -2.36 12 -1 12 C-1 12.66 -1 13.32 -1 14 C-1.66 14 -2.32 14 -3 14 C-3 14.66 -3 15.32 -3 16 C-5.375 18.625 -5.375 18.625 -8 21 C-9 21 -10 21 -11 21 C-11.33 21.99 -11.66 22.98 -12 24 C-13.65 24.33 -15.3 24.66 -17 25 C-16.57110139 19.84346893 -13.91742892 16.90393795 -10.75 13.0625 C-10.27175781 12.46759766 -9.79351562 11.87269531 -9.30078125 11.25976562 C-6.24438015 7.47032523 -3.12389288 3.73385007 0 0 Z " fill="#1F41E1" transform="translate(257,146)"/>
<path d="M0 0 C3.59452983 3.49182898 6.96185351 7.00700747 10 11 C10 11.99 10 12.98 10 14 C-11.12 14 -32.24 14 -54 14 C-54 13.67 -54 13.34 -54 13 C-34.2 12.67 -14.4 12.34 6 12 C6.33 11.34 6.66 10.68 7 10 C5.35 10 3.7 10 2 10 C2.33 9.01 2.66 8.02 3 7 C2.34 7 1.68 7 1 7 C0.505 3.535 0.505 3.535 0 0 Z " fill="#2942C1" transform="translate(168,176)"/>
<path d="M0 0 C-0.59927826 3.35595828 -1.84622436 5.37801226 -4 8 C-3.34 8 -2.68 8 -2 8 C0.07626313 12.62440425 1.70022952 17.1008651 3 22 C3.66 22 4.32 22 5 22 C4.67 23.32 4.34 24.64 4 26 C2.2255394 23.77363942 0.45537533 21.54408033 -1.3125 19.3125 C-1.81201172 18.68666016 -2.31152344 18.06082031 -2.82617188 17.41601562 C-5.47804842 14.06165522 -7.90358349 10.74206769 -10 7 C-9.34 7 -8.68 7 -8 7 C-8 7.66 -8 8.32 -8 9 C-7.34 9 -6.68 9 -6 9 C-6.33 7.02 -6.66 5.04 -7 3 C-3.375 0 -3.375 0 0 0 Z " fill="#1E41E4" transform="translate(238,210)"/>
<path d="M0 0 C2.6865734 0.67164335 4.51078944 1.29013153 6.1171875 3.62109375 C7.07873049 5.41373786 8.03938768 7.20685701 9 9 C9.99 9.66 10.98 10.32 12 11 C12.6875 13.125 12.6875 13.125 13 15 C14.32 14.67 15.64 14.34 17 14 C17.12375 14.969375 17.2475 15.93875 17.375 16.9375 C17.58125 17.948125 17.7875 18.95875 18 20 C18.66 20.33 19.32 20.66 20 21 C20 21.99 20 22.98 20 24 C20.99 24 21.98 24 23 24 C23 25.65 23 27.3 23 29 C19.32028939 25.41327847 15.92544543 21.68656317 12.625 17.75 C12.14893311 17.18369873 11.67286621 16.61739746 11.18237305 16.03393555 C0 2.67369373 0 2.67369373 0 0 Z " fill="#394FCF" transform="translate(143,112)"/>
<path d="M0 0 C0.66 0 1.32 0 2 0 C2.33 0.66 2.66 1.32 3 2 C6.02934491 2.65772428 6.02934491 2.65772428 9 3 C9 4.98 9 6.96 9 9 C10.65 9.33 12.3 9.66 14 10 C14.33 12.64 14.66 15.28 15 18 C16.32 18.33 17.64 18.66 19 19 C19.33 18.01 19.66 17.02 20 16 C20.99 16.33 21.98 16.66 23 17 C22.01 18.32 21.02 19.64 20 21 C16.57787771 20.71732909 15.23297074 20.23053974 12.75390625 17.77734375 C12.03074219 16.84019531 11.30757812 15.90304688 10.5625 14.9375 C9.79164063 13.94878906 9.02078125 12.96007812 8.2265625 11.94140625 C7.49179688 10.97074219 6.75703125 10.00007812 6 9 C5.36835938 8.18402344 4.73671875 7.36804688 4.0859375 6.52734375 C0 1.19238744 0 1.19238744 0 0 Z " fill="#314CD3" transform="translate(183,162)"/>
<path d="M0 0 C-1.7296616 4.20953787 -4.68206745 7.35143576 -7.625 10.75 C-8.140625 11.35199219 -8.65625 11.95398438 -9.1875 12.57421875 C-10.45469135 14.05260866 -11.72685775 15.52673171 -13 17 C-13.66 15.68 -14.32 14.36 -15 13 C-13.68 13 -12.36 13 -11 13 C-11 11.68 -11 10.36 -11 9 C-10.34 8.34 -9.68 7.68 -9 7 C-9.32041397 4.39719432 -9.32041397 4.39719432 -10 2 C-6.27511755 -0.66063032 -4.42132508 -1.38955931 0 0 Z " fill="#2645DD" transform="translate(244,131)"/>
<path d="M0 0 C0.33 0.66 0.66 1.32 1 2 C0.525625 2.556875 0.05125 3.11375 -0.4375 3.6875 C-2.12395996 6.18346074 -2.58953107 8.0446237 -3 11 C-3.99 11 -4.98 11 -6 11 C-5.67 12.65 -5.34 14.3 -5 16 C-5.7425 16.268125 -6.485 16.53625 -7.25 16.8125 C-9.86636554 17.94229421 -11.80187111 19.20893202 -14 21 C-14.66 20.67 -15.32 20.34 -16 20 C-15.58637207 19.50072998 -15.17274414 19.00145996 -14.74658203 18.48706055 C-12.87124768 16.22175566 -10.99810255 13.95465055 -9.125 11.6875 C-8.47402344 10.90181641 -7.82304687 10.11613281 -7.15234375 9.30664062 C-6.21455078 8.1706543 -6.21455078 8.1706543 -5.2578125 7.01171875 C-4.39373779 5.96697388 -4.39373779 5.96697388 -3.51220703 4.90112305 C-1.85049758 2.86657946 -1.85049758 2.86657946 0 0 Z " fill="#344DD4" transform="translate(176,245)"/>
<path d="M0 0 C0.33 0 0.66 0 1 0 C1.39141851 3.42491198 1.13357065 4.79010327 -0.75 7.75 C-3.06687322 10.06687322 -3.94246965 10.36740751 -7 11 C-7.33 11.99 -7.66 12.98 -8 14 C-8.99 14.495 -8.99 14.495 -10 15 C-10.28875 15.78375 -10.5775 16.5675 -10.875 17.375 C-12.13500471 20.31501099 -13.33889875 21.31463588 -16 23 C-16.66 22.67 -17.32 22.34 -18 22 C-16.88266271 20.49428343 -15.75589965 18.99555708 -14.625 17.5 C-13.99851562 16.6646875 -13.37203125 15.829375 -12.7265625 14.96875 C-12.15679687 14.3190625 -11.58703125 13.669375 -11 13 C-10.34 13 -9.68 13 -9 13 C-8.62875 11.9171875 -8.62875 11.9171875 -8.25 10.8125 C-6.87730408 7.72393418 -5.27646704 5.48988582 -3 3 C-2.34 3 -1.68 3 -1 3 C-0.67 2.01 -0.34 1.02 0 0 Z " fill="#4459D5" transform="translate(276,123)"/>
<path d="M0 0 C0.33 0.66 0.66 1.32 1 2 C1.66 2.33 2.32 2.66 3 3 C-0.65217391 8.04347826 -0.65217391 8.04347826 -3 10 C-3.99 10 -4.98 10 -6 10 C-6.0825 10.5775 -6.165 11.155 -6.25 11.75 C-7.41697913 15.25093738 -9.73186425 17.36593212 -13 19 C-13.33 19.99 -13.66 20.98 -14 22 C-14.99 21.67 -15.98 21.34 -17 21 C-16.27554688 20.154375 -15.55109375 19.30875 -14.8046875 18.4375 C-9.67201472 12.42321727 -4.64620756 6.40423204 0 0 Z " fill="#E0EAF9" transform="translate(239,137)"/>
<path d="M0 0 C1 2 1 2 0.1875 4.5625 C-1 7 -1 7 -3 8 C-3 8.99 -3 9.98 -3 11 C-3.62599617 12.68236471 -4.28752268 14.3523962 -5 16 C-7.64 16 -10.28 16 -13 16 C-12.154375 15.030625 -11.30875 14.06125 -10.4375 13.0625 C-6.80214054 8.82847752 -3.39403181 4.42830778 0 0 Z " fill="#E4EBF8" transform="translate(273,96)"/>
<path d="M0 0 C3.82675111 1.55904675 6.18007783 4.03166087 9 7 C9.66 7.66 10.32 8.32 11 9 C11.33 9.99 11.66 10.98 12 12 C12.86625 12.804375 13.7325 13.60875 14.625 14.4375 C15.800625 15.7059375 15.800625 15.7059375 17 17 C16.6484375 19.16015625 16.6484375 19.16015625 16 21 C0 3.38297872 0 3.38297872 0 0 Z " fill="#DCE9FC" transform="translate(222,240)"/>
<path d="M0 0 C0.99 0.33 1.98 0.66 3 1 C1.63912824 3.93917298 0.06935837 6.34215866 -1.96875 8.85546875 C-2.53980469 9.55994141 -3.11085937 10.26441406 -3.69921875 10.99023438 C-4.59060547 12.07788086 -4.59060547 12.07788086 -5.5 13.1875 C-6.09425781 13.92419922 -6.68851563 14.66089844 -7.30078125 15.41992188 C-11.74518391 20.87259195 -11.74518391 20.87259195 -14 22 C-14 20.35 -14 18.7 -14 17 C-13.34 16.67 -12.68 16.34 -12 16 C-11.34 16.33 -10.68 16.66 -10 17 C-10 15.68 -10 14.36 -10 13 C-9.01 13 -8.02 13 -7 13 C-6.67 11.35 -6.34 9.7 -6 8 C-4.68 7.67 -3.36 7.34 -2 7 C-1.855625 6.401875 -1.71125 5.80375 -1.5625 5.1875 C-1.1127561 3.43849596 -0.57107659 1.71322977 0 0 Z " fill="#364DCE" transform="translate(226,148)"/>
<path d="M0 0 C2.64 0.33 5.28 0.66 8 1 C7.34 1.66 6.68 2.32 6 3 C6.309375 3.680625 6.61875 4.36125 6.9375 5.0625 C8.13370649 8.36965912 8.59005397 11.51545878 9 15 C0.79765193 7.01933702 0.79765193 7.01933702 0 0 Z " fill="#2A46DB" transform="translate(127,89)"/>
<path d="M0 0 C1 3 1 3 0.3125 5.125 C-1 7 -1 7 -3.125 7.75 C-4.053125 7.87375 -4.053125 7.87375 -5 8 C-5 9.32 -5 10.64 -5 12 C-5.99 12.33 -6.98 12.66 -8 13 C-8.33 13.99 -8.66 14.98 -9 16 C-10.6454378 17.68762851 -12.31288577 19.3540349 -14 21 C-14.66 21.99 -15.32 22.98 -16 24 C-16.99 23.67 -17.98 23.34 -19 23 C-18.195625 22.071875 -17.39125 21.14375 -16.5625 20.1875 C-10.89655865 13.57947813 -5.42830263 6.80380013 0 0 Z " fill="#3E54CF" transform="translate(239,168)"/>
<path d="M0 0 C3.94879753 3.78336521 7.34359938 7.80295158 10.6875 12.125 C11.41549805 13.05505859 11.41549805 13.05505859 12.15820312 14.00390625 C14.19781768 16.62023941 16.15911404 19.23867106 18 22 C13.125 20.25 13.125 20.25 12 18 C11.01 18 10.02 18 9 18 C8.76925781 17.43152344 8.53851563 16.86304688 8.30078125 16.27734375 C6.59729946 12.24419911 4.86269477 8.59075447 2.25 5.0625 C0 2 0 2 0 0 Z " fill="#324CDE" transform="translate(149,152)"/>
<path d="M0 0 C1.24546405 2.49092811 0.7767578 3.41080733 0 6 C-0.99 6 -1.98 6 -3 6 C-3.33 7.32 -3.66 8.64 -4 10 C-3.34 10 -2.68 10 -2 10 C-2.33 11.32 -2.66 12.64 -3 14 C-4.65 13.67 -6.3 13.34 -8 13 C-8.66 14.65 -9.32 16.3 -10 18 C-10.99 17.34 -11.98 16.68 -13 16 C-12.31292969 15.18015625 -11.62585938 14.3603125 -10.91796875 13.515625 C-10.00775965 12.42712752 -9.09760635 11.33858339 -8.1875 10.25 C-7.73568359 9.71117187 -7.28386719 9.17234375 -6.81835938 8.6171875 C-4.46489931 5.79990684 -2.16578632 2.964465 0 0 Z " fill="#354ED7" transform="translate(143,286)"/>
<path d="M0 0 C1.30226747 2.60453495 0.88086382 4.32865642 0.06640625 7.0625 C-1.75899513 10.37898016 -4.74189876 12.20734033 -7.80859375 14.32421875 C-10.02613325 16.01998425 -11.44155617 17.69991731 -13 20 C-13.66 19.67 -14.32 19.34 -15 19 C-13.43905326 16.9571299 -11.87629071 14.91569142 -10.3125 12.875 C-9.87744141 12.30523437 -9.44238281 11.73546875 -8.99414062 11.1484375 C-6.0834415 7.35374828 -3.08351746 3.65577385 0 0 Z " fill="#3C54CE" transform="translate(198,218)"/>
<path d="M0 0 C1.66666667 1.66666667 3.33333333 3.33333333 5 5 C5.8971875 5.7425 5.8971875 5.7425 6.8125 6.5 C8 8 8 8 8 13 C1.07 13 -5.86 13 -13 13 C-13 12.67 -13 12.34 -13 12 C-4.585 11.505 -4.585 11.505 4 11 C3.67 9.35 3.34 7.7 3 6 C2.34 6 1.68 6 1 6 C0.67 4.02 0.34 2.04 0 0 Z " fill="#1D43DD" transform="translate(268,298)"/>
<path d="M0 0 C4.87072783 4.56630734 8.89156398 9.74976539 13 15 C11.68 15.33 10.36 15.66 9 16 C9 15.01 9 14.02 9 13 C7.35 12.67 5.7 12.34 4 12 C3.566875 10.4221875 3.566875 10.4221875 3.125 8.8125 C2.22774807 5.77181289 1.23576581 2.91287656 0 0 Z " fill="#2B4AD3" transform="translate(136,136)"/>
<path d="M0 0 C1.65 0.33 3.3 0.66 5 1 C1.61227103 5.69159716 -1.78185183 10.0299782 -6 14 C-6.125 11.625 -6.125 11.625 -6 9 C-5.34 8.34 -4.68 7.68 -4 7 C-3.34 6.01 -2.68 5.02 -2 4 C-1.34 4 -0.68 4 0 4 C0 2.68 0 1.36 0 0 Z " fill="#2E48DB" transform="translate(161,226)"/>
<path d="M0 0 C0.99 0.33 1.98 0.66 3 1 C2.01 1.33 1.02 1.66 0 2 C0.66 3.32 1.32 4.64 2 6 C2.99 6 3.98 6 5 6 C5.33 7.98 5.66 9.96 6 12 C6.66 12 7.32 12 8 12 C7.67 13.32 7.34 14.64 7 16 C3.37 11.71 -0.26 7.42 -4 3 C-2.68 2.01 -1.36 1.02 0 0 Z " fill="#3148D8" transform="translate(265,256)"/>
<path d="M0 0 C0.99 0.33 1.98 0.66 3 1 C-1.28251095 6.37704849 -5.57202877 11.74178416 -10 17 C-10.66 16.34 -11.32 15.68 -12 15 C-12 14.01 -12 13.02 -12 12 C-11.21625 11.731875 -10.4325 11.46375 -9.625 11.1875 C-6.71885077 10.15185568 -6.71885077 10.15185568 -5 7 C-4.34 7 -3.68 7 -3 7 C-2.87625 6.030625 -2.7525 5.06125 -2.625 4.0625 C-2.41875 3.051875 -2.2125 2.04125 -2 1 C-1.34 0.67 -0.68 0.34 0 0 Z " fill="#3650CC" transform="translate(140,255)"/>
<path d="M0 0 C2.35171131 0.59861742 4.6859378 1.26924352 7 2 C7.33 2.66 7.66 3.32 8 4 C8.66 4.33 9.32 4.66 10 5 C9.67 5.99 9.34 6.98 9 8 C9.66 8.33 10.32 8.66 11 9 C11.33 7.68 11.66 6.36 12 5 C12.625 7.3125 12.625 7.3125 13 10 C12.01 11.485 12.01 11.485 11 13 C9.16365966 11.02354928 7.33083938 9.044035 5.5 7.0625 C4.71302734 6.21655273 4.71302734 6.21655273 3.91015625 5.35351562 C0 1.11328125 0 1.11328125 0 0 Z " fill="#2341DD" transform="translate(243,236)"/>
<path d="M0 0 C0.33 0.99 0.66 1.98 1 3 C0.01 4.485 0.01 4.485 -1 6 C-1.66 6 -2.32 6 -3 6 C-3 7.32 -3 8.64 -3 10 C-4.42578125 11.5625 -4.42578125 11.5625 -6.3125 13 C-8.98668392 15.13285115 -11.10964506 17.10886891 -13 20 C-13.66 19.67 -14.32 19.34 -15 19 C-14.61666504 18.53102295 -14.23333008 18.0620459 -13.83837891 17.57885742 C-12.09919856 15.44953377 -10.36207968 13.31853763 -8.625 11.1875 C-8.02171875 10.44951172 -7.4184375 9.71152344 -6.796875 8.95117188 C-6.21679688 8.23896484 -5.63671875 7.52675781 -5.0390625 6.79296875 C-4.50490723 6.1383667 -3.97075195 5.48376465 -3.42041016 4.80932617 C-2.20566898 3.26198226 -1.09120531 1.63680796 0 0 Z " fill="#4056CC" transform="translate(159,266)"/>
<path d="M0 0 C4.66132863 3.57729872 7.73911534 7.10867301 11 12 C10.38125 12.144375 9.7625 12.28875 9.125 12.4375 C6.96741678 12.93152225 6.96741678 12.93152225 5 14 C4.34 12.35 3.68 10.7 3 9 C3.66 9.33 4.32 9.66 5 10 C5.33 9.34 5.66 8.68 6 8 C5.195625 7.79375 4.39125 7.5875 3.5625 7.375 C2.2940625 6.694375 2.2940625 6.694375 1 6 C0.1875 2.875 0.1875 2.875 0 0 Z " fill="#3C4FD4" transform="translate(207,224)"/>
<path d="M0 0 C0.99 0.495 0.99 0.495 2 1 C2 1.66 2 2.32 2 3 C2.66 3 3.32 3 4 3 C6.45391569 6.68087353 6.22802759 9.44355588 6.125 13.6875 C6.11597656 14.38939453 6.10695313 15.09128906 6.09765625 15.81445312 C6.07413704 17.54311525 6.03826713 19.27160145 6 21 C4.35 21 2.7 21 1 21 C1.66 20.34 2.32 19.68 3 19 C3.35895257 16.01089137 3.35895257 16.01089137 3.3125 12.625 C3.32925781 11.48289062 3.34601563 10.34078125 3.36328125 9.1640625 C2.9705104 5.74315513 2.20273951 4.54564619 0 2 C0 1.34 0 0.68 0 0 Z " fill="#E1F1FE" transform="translate(303,310)"/>
<path d="M0 0 C5.75 1.625 5.75 1.625 8 5 C8.6328125 7.26171875 8.6328125 7.26171875 9.125 9.6875 C9.29257813 10.49574219 9.46015625 11.30398437 9.6328125 12.13671875 C9.75398437 12.75160156 9.87515625 13.36648437 10 14 C5.78185183 10.0299782 2.38772897 5.69159716 -1 1 C-0.67 0.67 -0.34 0.34 0 0 Z " fill="#EBF3FA" transform="translate(127,122)"/>
<path d="M0 0 C0.99 0.33 1.98 0.66 3 1 C0.03 4.63 -2.94 8.26 -6 12 C-6.99 11.01 -7.98 10.02 -9 9 C-7.68 8.34 -6.36 7.68 -5 7 C-5.33 6.01 -5.66 5.02 -6 4 C-5.67 3.34 -5.34 2.68 -5 2 C-4.34 2.33 -3.68 2.66 -3 3 C-2.01 2.01 -1.02 1.02 0 0 Z " fill="#E8EFFA" transform="translate(145,280)"/>
<path d="M0 0 C3.59476701 3.49205938 6.92026191 7.04033675 10 11 C10 11.66 10 12.32 10 13 C8.68 12.67 7.36 12.34 6 12 C6.33 11.34 6.66 10.68 7 10 C5.35 10 3.7 10 2 10 C2.33 9.01 2.66 8.02 3 7 C2.34 7 1.68 7 1 7 C0.67 4.69 0.34 2.38 0 0 Z " fill="#3248DB" transform="translate(168,176)"/>
<path d="M0 0 C4.41309542 3.15221101 7.00793014 6.55463907 10 11 C9.01 11 8.02 11 7 11 C6.67 10.34 6.34 9.68 6 9 C4.02 9 2.04 9 0 9 C-1.15941038 5.52176885 -0.70820884 3.54104422 0 0 Z " fill="#2A46D3" transform="translate(258,286)"/>
<path d="M0 0 C0.66 0.33 1.32 0.66 2 1 C1.67 1.99 1.34 2.98 1 4 C0.34 4 -0.32 4 -1 4 C-1 4.66 -1 5.32 -1 6 C-1.99 6.495 -1.99 6.495 -3 7 C-3.68132451 8.66072849 -4.34742127 10.327767 -5 12 C-5.66 12.66 -6.32 13.32 -7 14 C-9.625 13.625 -9.625 13.625 -12 13 C-11.319375 12.525625 -10.63875 12.05125 -9.9375 11.5625 C-6.02011774 8.14520909 -3.08656239 4.16285648 0 0 Z " fill="#ECF2FE" transform="translate(123,280)"/>
<path d="M0 0 C1.64826111 2.96687001 2.44271087 5.65626525 3 9 C-0.63108453 8.69740962 -1.78140381 8.2363202 -4.3125 5.5 C-6 3 -6 3 -6 2 C-4.02 2 -2.04 2 0 2 C0 1.34 0 0.68 0 0 Z " fill="#2D48DD" transform="translate(261,248)"/>
<path d="M0 0 C2.475 0.99 2.475 0.99 5 2 C1.25 7.875 1.25 7.875 -1 9 C-1.99 8.01 -2.98 7.02 -4 6 C-3.67 5.01 -3.34 4.02 -3 3 C-2.34 3 -1.68 3 -1 3 C-0.67 2.01 -0.34 1.02 0 0 Z " fill="#2448E6" transform="translate(252,114)"/>
<path d="M0 0 C0.66 0 1.32 0 2 0 C2 0.66 2 1.32 2 2 C3.98 2 5.96 2 8 2 C9.125 4.8125 9.125 4.8125 10 8 C9.01 9.485 9.01 9.485 8 11 C6.66375099 9.35653302 5.33107149 7.71016314 4 6.0625 C3.2575 5.14597656 2.515 4.22945313 1.75 3.28515625 C0 1 0 1 0 0 Z " fill="#E5ECFA" transform="translate(262,289)"/>
<path d="M0 0 C3.05566461 2.96306871 5.97135828 6.01720161 8.8125 9.1875 C9.41707031 9.86167969 10.02164063 10.53585937 10.64453125 11.23046875 C12 13 12 13 12 15 C11.01 15.33 10.02 15.66 9 16 C8.34 14.35 7.68 12.7 7 11 C6.34 11 5.68 11 5 11 C4.16151196 9.54462432 3.32936066 8.08559627 2.5 6.625 C1.80390625 5.40683594 1.80390625 5.40683594 1.09375 4.1640625 C0 2 0 2 0 0 Z " fill="#3F55D3" transform="translate(238,261)"/>
<path d="M0 0 C0 4.0116196 -1.90487068 6.42093858 -4 9.6875 C-4.3815625 10.29400391 -4.763125 10.90050781 -5.15625 11.52539062 C-6.09818472 13.02071199 -7.04831375 14.51086593 -8 16 C-9.32 15.34 -10.64 14.68 -12 14 C-8.04 9.38 -4.08 4.76 0 0 Z " fill="#D9E5FC" transform="translate(252,122)"/>
<path d="M0 0 C0.66 0 1.32 0 2 0 C2 0.66 2 1.32 2 2 C2.5775 2.20625 3.155 2.4125 3.75 2.625 C7.66850794 5.01964374 9.57583774 8.72751322 11 13 C11.66 13 12.32 13 13 13 C13 13.66 13 14.32 13 15 C13.66 15 14.32 15 15 15 C14.67 16.32 14.34 17.64 14 19 C12.2255394 16.77363942 10.45537533 14.54408033 8.6875 12.3125 C7.93823242 11.37374023 7.93823242 11.37374023 7.17382812 10.41601562 C4.52195158 7.06165522 2.09641651 3.74206769 0 0 Z " fill="#3B51CD" transform="translate(228,217)"/>
<path d="M0 0 C0 3.99626903 -1.81747873 5.7262181 -4 9 C-4 9.99 -4 10.98 -4 12 C-4 12.66 -4 13.32 -4 14 C-5.65 14.33 -7.3 14.66 -9 15 C-8.4887988 10.49656089 -6.82478642 8.12474574 -3.9375 4.6875 C-3.20402344 3.80449219 -2.47054687 2.92148438 -1.71484375 2.01171875 C-1.14894531 1.34785156 -0.58304688 0.68398437 0 0 Z " fill="#344CD6" transform="translate(249,156)"/>
<path d="M0 0 C1.423125 0.495 1.423125 0.495 2.875 1 C5.77062452 2.10159191 5.77062452 2.10159191 8 2 C8.28875 3.134375 8.5775 4.26875 8.875 5.4375 C9.24625 6.613125 9.6175 7.78875 10 9 C10.66 9.33 11.32 9.66 12 10 C11.67 10.99 11.34 11.98 11 13 C6.78185183 9.0299782 3.38772897 4.69159716 0 0 Z " fill="#2947D6" transform="translate(284,286)"/>
<path d="M0 0 C0.8125 1.6875 0.8125 1.6875 1 4 C-1.125 6.4375 -1.125 6.4375 -4 9 C-4.928125 9.928125 -5.85625 10.85625 -6.8125 11.8125 C-7.534375 12.534375 -8.25625 13.25625 -9 14 C-9 10.02785867 -7.56892582 8.89680688 -5.0625 5.875 C-4.33160156 4.98554687 -3.60070312 4.09609375 -2.84765625 3.1796875 C-1 1 -1 1 0 0 Z " fill="#3B50D4" transform="translate(287,110)"/>
<path d="M0 0 C3.26008643 3.16952847 6.22237877 6.39937989 9 10 C8.01 10.495 8.01 10.495 7 11 C7 10.34 7 9.68 7 9 C5.824375 9.0928125 5.824375 9.0928125 4.625 9.1875 C3.325625 9.0946875 3.325625 9.0946875 2 9 C-0.29013653 5.5647952 -0.17842973 4.014669 0 0 Z " fill="#3950CD" transform="translate(218,237)"/>
<path d="M0 0 C0.33 0 0.66 0 1 0 C1.3125 2.25 1.3125 2.25 1 5 C-3.10810811 9 -3.10810811 9 -6 9 C-6.66 10.32 -7.32 11.64 -8 13 C-8.66 12.67 -9.32 12.34 -10 12 C-8.35767739 9.99702215 -6.71138756 7.99756092 -5.0625 6 C-4.59392578 5.42765625 -4.12535156 4.8553125 -3.64257812 4.265625 C-2.45065672 2.82502935 -1.22767412 1.41025129 0 0 Z " fill="#3F56CE" transform="translate(304,89)"/>
<path d="M0 0 C1.8125 0.1875 1.8125 0.1875 4 1 C5.05771739 2.63064764 6.05273046 4.30280873 7 6 C7.721875 6.70125 8.44375 7.4025 9.1875 8.125 C11 10 11 10 11 13 C11.66 13 12.32 13 13 13 C12.67 13.99 12.34 14.98 12 16 C12 15.34 12 14.68 12 14 C11.34 14 10.68 14 10 14 C8.39420059 12.07304071 6.905767 10.15227545 5.4375 8.125 C5.02564453 7.56941406 4.61378906 7.01382812 4.18945312 6.44140625 C2.64782237 4.34721063 1.16523877 2.33047755 0 0 Z " fill="#4056CA" transform="translate(295,299)"/>
<path d="M0 0 C4.39291786 3.31909349 6.8227865 5.79887886 9 11 C7.68 11.33 6.36 11.66 5 12 C3.23537317 8.91190305 3 7.76687864 3 4 C2.01 3.67 1.02 3.34 0 3 C0 2.01 0 1.02 0 0 Z " fill="#D2E0F9" transform="translate(249,244)"/>
<path d="M0 0 C1 2 1 2 0.25 5 C-1 8 -1 8 -4 10 C-5.32 9.67 -6.64 9.34 -8 9 C-5.36 6.03 -2.72 3.06 0 0 Z " fill="#DAE4F9" transform="translate(175,216)"/>
<path d="M0 0 C1.32 0.33 2.64 0.66 4 1 C3.5359375 1.8353125 3.5359375 1.8353125 3.0625 2.6875 C1.92904426 5.15443308 1.35371934 7.31173299 1 10 C1.33 10.66 1.66 11.32 2 12 C1.34 12.66 0.68 13.32 0 14 C-2.04494172 9.91011656 -2.05725219 7.42123641 -1 3 C-0.67 2.01 -0.34 1.02 0 0 Z " fill="#ECF4FB" transform="translate(214,192)"/>
<path d="M0 0 C0.66 0.99 1.32 1.98 2 3 C1.34 3 0.68 3 0 3 C0.33 4.65 0.66 6.3 1 8 C-0.75 9.0625 -0.75 9.0625 -3 10 C-4.32 9.67 -5.64 9.34 -7 9 C-4.69 6.03 -2.38 3.06 0 0 Z " fill="#E3EFFC" transform="translate(221,159)"/>
<path d="M0 0 C0.99 0.33 1.98 0.66 3 1 C0.69 3.97 -1.62 6.94 -4 10 C-4.66 8.68 -5.32 7.36 -6 6 C-5.125 3.75 -5.125 3.75 -4 2 C-3.34 2.33 -2.68 2.66 -2 3 C-2 2.34 -2 1.68 -2 1 C-1.34 0.67 -0.68 0.34 0 0 Z " fill="#E4EDFA" transform="translate(279,116)"/>
<path d="M0 0 C0.33 0.66 0.66 1.32 1 2 C0.525625 2.556875 0.05125 3.11375 -0.4375 3.6875 C-2.12395996 6.18346074 -2.58953107 8.0446237 -3 11 C-4.32 11 -5.64 11 -7 11 C-7.33 11.99 -7.66 12.98 -8 14 C-8 9.2047363 -7.01007087 8.32445916 -4 4.75 C-3.2575 3.85796875 -2.515 2.9659375 -1.75 2.046875 C-1.1725 1.37140625 -0.595 0.6959375 0 0 Z " fill="#4055D0" transform="translate(176,245)"/>
<path d="M0 0 C0.33 0.66 0.66 1.32 1 2 C-0.46900412 6.00637487 -3.18029475 9.09014737 -7 11 C-7.33 11.99 -7.66 12.98 -8 14 C-8.99 13.67 -9.98 13.34 -11 13 C-7.37 8.71 -3.74 4.42 0 0 Z " fill="#D1E0FB" transform="translate(233,145)"/>
<path d="M0 0 C0.66 0.99 1.32 1.98 2 3 C4.05003955 4.19232613 4.05003955 4.19232613 6 5 C5.67 6.32 5.34 7.64 5 9 C5.66 9 6.32 9 7 9 C7.33 10.32 7.66 11.64 8 13 C4.40365256 9.50640535 1.16548033 5.88901869 -2 2 C-1.34 1.34 -0.68 0.68 0 0 Z " fill="#334BCE" transform="translate(168,140)"/>
<path d="M0 0 C3.9252025 3.70090521 6.94580156 7.54959656 10 12 C8.35 11.67 6.7 11.34 5 11 C4.67 9.35 4.34 7.7 4 6 C3.34 6 2.68 6 2 6 C2 5.34 2 4.68 2 4 C1.34 4 0.68 4 0 4 C0 2.68 0 1.36 0 0 Z " fill="#3953CD" transform="translate(123,120)"/>
<path d="M0 0 C0.33 0 0.66 0 1 0 C1.39600661 3.46505783 1.14386351 4.78172433 -0.8125 7.75 C-3 10 -3 10 -6 11 C-4.125 5.25 -4.125 5.25 -3 3 C-2.34 3 -1.68 3 -1 3 C-0.67 2.01 -0.34 1.02 0 0 Z " fill="#324DD3" transform="translate(276,123)"/>
<path d="M0 0 C0.33 0.66 0.66 1.32 1 2 C0.54625 2.556875 0.0925 3.11375 -0.375 3.6875 C-2.11050352 5.94954292 -2.11050352 5.94954292 -3 8.6875 C-3.33 9.450625 -3.66 10.21375 -4 11 C-4.99 11.33 -5.98 11.66 -7 12 C-7.33 12.66 -7.66 13.32 -8 14 C-8.66 13.67 -9.32 13.34 -10 13 C-9.52949219 12.39671875 -9.05898437 11.7934375 -8.57421875 11.171875 C-7.64029297 9.97304688 -7.64029297 9.97304688 -6.6875 8.75 C-6.07261719 7.96109375 -5.45773438 7.1721875 -4.82421875 6.359375 C-3.19620982 4.2537703 -1.59064137 2.13390657 0 0 Z " fill="#D0DBFB" transform="translate(134,266)"/>
<path d="M0 0 C0.99 0.33 1.98 0.66 3 1 C0.03 4.63 -2.94 8.26 -6 12 C-6.66 10.68 -7.32 9.36 -8 8 C-6.68 8 -5.36 8 -4 8 C-4 6.68 -4 5.36 -4 4 C-2.68 3.67 -1.36 3.34 0 3 C0 2.01 0 1.02 0 0 Z " fill="#3247CF" transform="translate(237,136)"/>
<path d="M0 0 C0.66 0.99 1.32 1.98 2 3 C0.75 5.5 0.75 5.5 -1 8 C-2.32 8 -3.64 8 -5 8 C-5.33 8.99 -5.66 9.98 -6 11 C-6.66 10.67 -7.32 10.34 -8 10 C-5.36 6.7 -2.72 3.4 0 0 Z " fill="#DCE4FB" transform="translate(152,244)"/>
<path d="M0 0 C0.33 0 0.66 0 1 0 C1.02690104 2.79173055 1.04679053 5.58320348 1.0625 8.375 C1.07087891 9.1690625 1.07925781 9.963125 1.08789062 10.78125 C1.11328125 16.7734375 1.11328125 16.7734375 0 19 C-1.32 19 -2.64 19 -4 19 C-4 18.34 -4 17.68 -4 17 C-3.34 17 -2.68 17 -2 17 C-0.84429296 13.53287889 -0.67164707 10.4585044 -0.4375 6.8125 C-0.35371094 5.54019531 -0.26992188 4.26789063 -0.18359375 2.95703125 C-0.12300781 1.98121094 -0.06242187 1.00539063 0 0 Z " fill="#3C53C5" transform="translate(309,70)"/>
<path d="M0 0 C4.21814817 3.9700218 7.61227103 8.30840284 11 13 C10.01 13 9.02 13 8 13 C6.2109375 11.171875 6.2109375 11.171875 4.375 8.75 C3.76398438 7.96109375 3.15296875 7.1721875 2.5234375 6.359375 C1.09983007 4.15460862 0.43474299 2.56145868 0 0 Z " fill="#D4E2FD" transform="translate(232,223)"/>
<path d="M0 0 C1.9375 0.125 1.9375 0.125 4 1 C5.48261414 3.88719595 6.29772585 6.83976631 7 10 C4.06799526 7.14723863 1.35684596 4.34920216 -1 1 C-0.67 0.67 -0.34 0.34 0 0 Z " fill="#E4EFFC" transform="translate(115,107)"/>
<path d="M0 0 C1.32 0.66 2.64 1.32 4 2 C2.85793642 3.50287218 1.71125043 5.00223284 0.5625 6.5 C-0.39462891 7.75296875 -0.39462891 7.75296875 -1.37109375 9.03125 C-1.90863281 9.6809375 -2.44617188 10.330625 -3 11 C-3.33 11 -3.66 11 -4 11 C-4 9.35 -4 7.7 -4 6 C-3.01 6 -2.02 6 -1 6 C-0.67 4.02 -0.34 2.04 0 0 Z " fill="#344DCD" transform="translate(269,95)"/>
<path d="M0 0 C3.17462943 2.40242227 5.85751741 4.61713276 8 8 C8 8.66 8 9.32 8 10 C7.34 10 6.68 10 6 10 C6 9.34 6 8.68 6 8 C4.35 7.67 2.7 7.34 1 7 C1.33 5.68 1.66 4.36 2 3 C1.01 2.67 0.02 2.34 -1 2 C-0.67 1.34 -0.34 0.68 0 0 Z " fill="#3B53D6" transform="translate(250,276)"/>
<path d="M0 0 C0.33 0 0.66 0 1 0 C1.144375 0.78375 1.28875 1.5675 1.4375 2.375 C1.87798925 4.96421018 1.87798925 4.96421018 3 7 C1.1875 7.625 1.1875 7.625 -1 8 C-1.99 7.34 -2.98 6.68 -4 6 C-2.84826645 3.53199953 -1.95216435 1.95216435 0 0 Z " fill="#304CD7" transform="translate(292,104)"/>
<path d="M0 0 C3.28788824 3.11016455 5.83735988 6.01618925 8 10 C7.01 10.495 7.01 10.495 6 11 C6 10.01 6 9.02 6 8 C4.02 7.34 2.04 6.68 0 6 C0 4.02 0 2.04 0 0 Z " fill="#DBE2FB" transform="translate(136,105)"/>
<path d="M0 0 C2.93200474 2.85276137 5.64315404 5.65079784 8 9 C7.01 9.33 6.02 9.66 5 10 C2.08772731 6.71195019 0.50298788 4.40114397 0 0 Z " fill="#E1E8FD" transform="translate(280,282)"/>
<path d="M0 0 C3.26008643 3.16952847 6.22237877 6.39937989 9 10 C8.01 10.495 8.01 10.495 7 11 C7 10.34 7 9.68 7 9 C6.401875 8.938125 5.80375 8.87625 5.1875 8.8125 C2.07733153 7.65729457 1.39582292 5.93122813 0 3 C0 2.01 0 1.02 0 0 Z " fill="#DBEAFD" transform="translate(160,135)"/>
<path d="M0 0 C2 1 2 1 2.6875 2.8125 C3.02688538 5.18819767 2.72856341 6.73335829 2 9 C0.68 8.34 -0.64 7.68 -2 7 C-2 6.01 -2 5.02 -2 4 C-1.34 4 -0.68 4 0 4 C0 2.68 0 1.36 0 0 Z " fill="#2344D9" transform="translate(236,259)"/>
<path d="M0 0 C3.2626876 3.08632611 6.02235218 5.93483504 8 10 C7.67 10.66 7.34 11.32 7 12 C5.821389 10.76125579 4.65747085 9.5085199 3.5 8.25 C2.8503125 7.55390625 2.200625 6.8578125 1.53125 6.140625 C0 4 0 4 0 0 Z " fill="#405BCC" transform="translate(214,198)"/>
<path d="M0 0 C2 3 2 3 2 6 C-0.31 6.33 -2.62 6.66 -5 7 C-3.35 4.69 -1.7 2.38 0 0 Z " fill="#E1EBFB" transform="translate(213,169)"/>
<path d="M0 0 C0.33 0.66 0.66 1.32 1 2 C1.66 2.33 2.32 2.66 3 3 C2.401875 3.2475 1.80375 3.495 1.1875 3.75 C-1.28647521 5.16370012 -2.43370255 6.65055383 -4 9 C-4.99 8.67 -5.98 8.34 -7 8 C-4.69 5.36 -2.38 2.72 0 0 Z " fill="#455AD5" transform="translate(257,146)"/>
<path d="M0 0 C4.875 4.625 4.875 4.625 6 8 C4.35 8 2.7 8 1 8 C0.33333333 6 -0.33333333 4 -1 2 C-0.67 1.34 -0.34 0.68 0 0 Z " fill="#DFE9FA" transform="translate(274,274)"/>
<path d="M0 0 C0.66 0.33 1.32 0.66 2 1 C-0.31 3.97 -2.62 6.94 -5 10 C-5.33 8.68 -5.66 7.36 -6 6 C-4.78515625 4.296875 -4.78515625 4.296875 -3.0625 2.75 C-2.21365234 1.96882813 -2.21365234 1.96882813 -1.34765625 1.171875 C-0.90292969 0.78515625 -0.45820313 0.3984375 0 0 Z " fill="#DEEEFE" transform="translate(166,255)"/>
<path d="M0 0 C3.59476701 3.49205938 6.92026191 7.04033675 10 11 C10 11.66 10 12.32 10 13 C6.23924335 11.74641445 5.52350869 10.29326113 3.3125 7.0625 C2.68988281 6.16660156 2.06726563 5.27070313 1.42578125 4.34765625 C0 2 0 2 0 0 Z " fill="#3B52C8" transform="translate(149,152)"/>
<path d="M0 0 C1.32 0 2.64 0 4 0 C4 1.32 4 2.64 4 4 C4.66 4 5.32 4 6 4 C6.66 5.32 7.32 6.64 8 8 C7.01 8 6.02 8 5 8 C0 2.65116279 0 2.65116279 0 0 Z " fill="#3750CE" transform="translate(176,153)"/>
<path d="M0 0 C1.66666667 1.66666667 3.33333333 3.33333333 5 5 C5.8971875 5.8353125 5.8971875 5.8353125 6.8125 6.6875 C8 8 8 8 8 10 C4.25152155 8.75050718 2.76842281 7.33462909 0.8125 3.9375 C0 2 0 2 0 0 Z " fill="#3A50CA" transform="translate(268,298)"/>
<path d="M0 0 C2.31 0 4.62 0 7 0 C5.7260411 2.03833424 4.38938077 4.03852126 3 6 C2.34 6 1.68 6 1 6 C0.67 4.02 0.34 2.04 0 0 Z " fill="#2D48D4" transform="translate(121,274)"/>
<path d="M0 0 C1.32 0.33 2.64 0.66 4 1 C1.69 3.64 -0.62 6.28 -3 9 C-3.33 8.01 -3.66 7.02 -4 6 C-2.0625 2.8125 -2.0625 2.8125 0 0 Z " fill="#DFEAFE" transform="translate(154,268)"/>
<path d="M0 0 C0.66 0 1.32 0 2 0 C2 0.66 2 1.32 2 2 C3.32 2.33 4.64 2.66 6 3 C6.33 2.01 6.66 1.02 7 0 C7.99 0.33 8.98 0.66 10 1 C9.01 2.32 8.02 3.64 7 5 C4.625 4.75 4.625 4.75 2 4 C0.6875 1.9375 0.6875 1.9375 0 0 Z " fill="#4153C8" transform="translate(196,178)"/>
<path d="M0 0 C0.66 0.33 1.32 0.66 2 1 C2 1.66 2 2.32 2 3 C2.66 3.33 3.32 3.66 4 4 C2.35 5.98 0.7 7.96 -1 10 C-1 9.01 -1 8.02 -1 7 C-1.020625 5.96875 -1.04125 4.9375 -1.0625 3.875 C-1 1 -1 1 0 0 Z " fill="#2E48D2" transform="translate(246,121)"/>
<path d="M0 0 C0 3 0 3 -2.5 5.6875 C-3.325 6.450625 -4.15 7.21375 -5 8 C-5.33 6.35 -5.66 4.7 -6 3 C-5.195625 2.690625 -4.39125 2.38125 -3.5625 2.0625 C-1.10919595 1.23664655 -1.10919595 1.23664655 0 0 Z " fill="#2B4ACD" transform="translate(134,264)"/>
<path d="M0 0 C-0.99 0.33 -1.98 0.66 -3 1 C-2.42655063 3.86724686 -2.1385485 4.8614515 0 7 C-0.99 7 -1.98 7 -3 7 C-5.1875 4 -5.1875 4 -7 1 C-3.375 -1.125 -3.375 -1.125 0 0 Z " fill="#4159DE" transform="translate(268,257)"/>
<path d="M0 0 C1.9375 0.8125 1.9375 0.8125 4 2 C4.33 2.99 4.66 3.98 5 5 C3.68 5 2.36 5 1 5 C0.01 5.495 0.01 5.495 -1 6 C-1.66 4.35 -2.32 2.7 -3 1 C-2.01 1.495 -2.01 1.495 -1 2 C-0.67 1.34 -0.34 0.68 0 0 Z " fill="#2E48D7" transform="translate(213,232)"/>
<path d="M0 0 C3.29148243 1.13499394 3.9959869 1.99283376 5.75 5.125 C6.1625 6.07375 6.575 7.0225 7 8 C6.01 8 5.02 8 4 8 C4 7.34 4 6.68 4 6 C3.34 6 2.68 6 2 6 C2 4.68 2 3.36 2 2 C1.01 1.67 0.02 1.34 -1 1 C-0.67 0.67 -0.34 0.34 0 0 Z " fill="#4659C9" transform="translate(200,216)"/>
<path d="M0 0 C2.64752004 2.57784846 4.94432065 4.91648098 7 8 C4 8 4 8 1.8125 6.25 C0 4 0 4 0 0 Z " fill="#E0EBFE" transform="translate(147,119)"/>
<path d="M0 0 C0.99 0.33 1.98 0.66 3 1 C1.35 2.98 -0.3 4.96 -2 7 C-2.66 6.67 -3.32 6.34 -4 6 C-2.84826645 3.53199953 -1.95216435 1.95216435 0 0 Z " fill="#E8EFFD" transform="translate(286,107)"/>
<path d="M0 0 C-1.65 1.65 -3.3 3.3 -5 5 C-5.33 3.35 -5.66 1.7 -6 0 C-3 -1 -3 -1 0 0 Z " fill="#E9EEFC" transform="translate(134,298)"/>
<path d="M0 0 C2.86001033 1.28207359 5.07039412 2.49151236 7 5 C7 6.32 7 7.64 7 9 C4.03595495 6.19195732 1.55500981 3.81684226 0 0 Z " fill="#DFEBFD" transform="translate(253,278)"/>
<path d="M0 0 C1.65 1.65 3.3 3.3 5 5 C1.98968256 5.93423645 1.13349732 6.04449911 -2 5 C-1.34 3.35 -0.68 1.7 0 0 Z " fill="#E0E7FB" transform="translate(267,266)"/>
<path d="M0 0 C2.31 0.66 4.62 1.32 7 2 C7 3.98 7 5.96 7 8 C4.35247996 5.42215154 2.05567935 3.08351902 0 0 Z " fill="#334BD6" transform="translate(243,236)"/>
<path d="M0 0 C0.99 0 1.98 0 3 0 C1.55746343 3.36591866 -0.33264727 5.51047079 -3 8 C-3 4.38462395 -2.10770759 2.88834003 0 0 Z " fill="#E3EDFD" transform="translate(188,226)"/>
<path d="M0 0 C1.98 1.65 3.96 3.3 6 5 C5.67 5.66 5.34 6.32 5 7 C2.5 5.75 2.5 5.75 0 4 C0 2.68 0 1.36 0 0 Z " fill="#DBEAFD" transform="translate(219,208)"/>
<path d="M0 0 C1.64826111 2.96687001 2.44271087 5.65626525 3 9 C0.35247996 6.42215154 -1.94432065 4.08351902 -4 1 C-2.68 1.33 -1.36 1.66 0 2 C0 1.34 0 0.68 0 0 Z " fill="#E2E8FD" transform="translate(134,127)"/>
<path d="M0 0 C3.82946843 1.45255699 5.12050295 3.42895561 7 7 C5.35 6.67 3.7 6.34 2 6 C1.34 4.02 0.68 2.04 0 0 Z " fill="#3C53D3" transform="translate(116,113)"/>
<path d="M0 0 C1.67542976 0.28604898 3.34385343 0.61781233 5 1 C2.525 4.465 2.525 4.465 0 8 C-1.24205807 5.51588385 -1.14092354 3.74800896 -1 1 C-0.67 0.67 -0.34 0.34 0 0 Z " fill="#2945D1" transform="translate(259,106)"/>
<path d="M0 0 C4.875 3.625 4.875 3.625 6 7 C2 7 2 7 0 6 C0 4.02 0 2.04 0 0 Z " fill="#3752D2" transform="translate(258,286)"/>
<path d="M0 0 C0.99 0.33 1.98 0.66 3 1 C1.02 3.31 -0.96 5.62 -3 8 C-3.33 7.01 -3.66 6.02 -4 5 C-3.34 5 -2.68 5 -2 5 C-2.33 4.01 -2.66 3.02 -3 2 C-2.01 1.34 -1.02 0.68 0 0 Z " fill="#DEEBFE" transform="translate(172,247)"/>
<path d="M0 0 C1 3 1 3 0.0625 5.1875 C-0.4634375 6.0846875 -0.4634375 6.0846875 -1 7 C-2.32 6.67 -3.64 6.34 -5 6 C-3.35 4.02 -1.7 2.04 0 0 Z " fill="#3F59CC" transform="translate(182,238)"/>
<path d="M0 0 C0.99 0 1.98 0 3 0 C3 1.32 3 2.64 3 4 C3.99 4.33 4.98 4.66 6 5 C6 5.66 6 6.32 6 7 C4.35 6.67 2.7 6.34 1 6 C1 4.68 1 3.36 1 2 C0.34 1.67 -0.32 1.34 -1 1 C-0.67 0.67 -0.34 0.34 0 0 Z " fill="#2240DF" transform="translate(242,230)"/>
<path d="M0 0 C2.97 0.495 2.97 0.495 6 1 C6 2.98 6 4.96 6 7 C1.125 2.25 1.125 2.25 0 0 Z " fill="#2F48D4" transform="translate(222,210)"/>
<path d="M0 0 C4.875 4.625 4.875 4.625 6 8 C4.68 7.67 3.36 7.34 2 7 C2.33 6.34 2.66 5.68 3 5 C2.34 5 1.68 5 1 5 C0.67 3.35 0.34 1.7 0 0 Z " fill="#3548CD" transform="translate(172,181)"/>
<path d="M0 0 C0.33 0.99 0.66 1.98 1 3 C2.32 2.67 3.64 2.34 5 2 C5 3.65 5 5.3 5 7 C1.125 6.125 1.125 6.125 0 5 C-0.04063832 3.33382885 -0.042721 1.66611905 0 0 Z " fill="#2C47D3" transform="translate(155,124)"/>
<path d="M0 0 C2.96 4.44 2.96 4.44 4 7 C3.67 7.99 3.34 8.98 3 10 C1.35 8.02 -0.3 6.04 -2 4 C-1.34 3.67 -0.68 3.34 0 3 C0 2.01 0 1.02 0 0 Z " fill="#324FD4" transform="translate(138,101)"/>
<path d="M0 0 C0.66 0.33 1.32 0.66 2 1 C1.67 1.99 1.34 2.98 1 4 C0.34 4 -0.32 4 -1 4 C-1 4.66 -1 5.32 -1 6 C-2.65 6.66 -4.3 7.32 -6 8 C-4.02 5.36 -2.04 2.72 0 0 Z " fill="#DAE5FC" transform="translate(123,280)"/>
<path d="M0 0 C1.65 0.33 3.3 0.66 5 1 C3.02 3.97 3.02 3.97 1 7 C0.34 6.01 -0.32 5.02 -1 4 C-0.67 3.34 -0.34 2.68 0 2 C0 1.34 0 0.68 0 0 Z " fill="#2F4ED4" transform="translate(148,242)"/>
<path d="M0 0 C1.32 0.33 2.64 0.66 4 1 C4 1.66 4 2.32 4 3 C4.66 3 5.32 3 6 3 C5.67 3.66 5.34 4.32 5 5 C3.68 5 2.36 5 1 5 C0.67 3.35 0.34 1.7 0 0 Z " fill="#E6EBF8" transform="translate(177,186)"/>
<path d="M0 0 C3.31832766 0.98652984 4.76548627 1.68731503 6.875 4.5 C7.24625 5.325 7.6175 6.15 8 7 C7.67 7.66 7.34 8.32 7 9 C5.83037314 7.69013727 4.66437056 6.3770374 3.5 5.0625 C2.8503125 4.33160156 2.200625 3.60070312 1.53125 2.84765625 C0 1 0 1 0 0 Z " fill="#3D51C9" transform="translate(284,286)"/>
<path d="M0 0 C1.32 0 2.64 0 4 0 C4 0.66 4 1.32 4 2 C2.37373596 3.38232443 0.7074998 4.71937515 -1 6 C-1.625 4.125 -1.625 4.125 -2 2 C-1.34 1.34 -0.68 0.68 0 0 Z " fill="#E6EEFB" transform="translate(263,134)"/>
<path d="M0 0 C2.475 0.99 2.475 0.99 5 2 C3.515 4.475 3.515 4.475 2 7 C1.67 5.68 1.34 4.36 1 3 C0.34 3 -0.32 3 -1 3 C-0.67 2.01 -0.34 1.02 0 0 Z " fill="#3A53DB" transform="translate(252,114)"/>
<path d="M0 0 C1 2 1 2 0.375 4.5625 C-1 7 -1 7 -3.625 7.8125 C-4.40875 7.874375 -5.1925 7.93625 -6 8 C-4.02 5.36 -2.04 2.72 0 0 Z " fill="#D6E0FB" transform="translate(273,96)"/>
<path d="M0 0 C0.66 0 1.32 0 2 0 C0.62845496 2.95409701 -0.98863724 5.44008376 -3 8 C-3.33 7.34 -3.66 6.68 -4 6 C-1.68421053 1.68421053 -1.68421053 1.68421053 0 0 Z " fill="#E4EFFC" transform="translate(126,304)"/>
<path d="M0 0 C4.875 4.75 4.875 4.75 6 7 C4.125 6.75 4.125 6.75 2 6 C0.61504198 3.85331506 0 2.56128588 0 0 Z " fill="#D3E1F9" transform="translate(226,216)"/>
<path d="M0 0 C1.32 0 2.64 0 4 0 C2.63016497 3.16115776 2.0109362 3.9927092 -1 6 C-0.67 4.02 -0.34 2.04 0 0 Z " fill="#3B4DCF" transform="translate(208,170)"/>
<path d="M0 0 C2.475 0.495 2.475 0.495 5 1 C5 2.98 5 4.96 5 7 C2.47411298 4.63707344 1.11179163 3.33537489 0 0 Z " fill="#DBE8FE" transform="translate(159,163)"/>
<path d="M0 0 C2.96404505 2.80804268 5.44499019 5.18315774 7 9 C3.17475764 7.549046 1.80909034 5.61818068 0 2 C0 1.34 0 0.68 0 0 Z " fill="#3D53C5" transform="translate(136,136)"/>
<path d="M0 0 C1.32 0.99 2.64 1.98 4 3 C3.67 3.66 3.34 4.32 3 5 C1.35 4.67 -0.3 4.34 -2 4 C-1.34 2.68 -0.68 1.36 0 0 Z " fill="#E1E7FB" transform="translate(130,98)"/>
</svg>
